# AST/ASF file generated using VICON BodyLanguage
# -----------------------------------------------
:version 1.10
:name VICON
:units
  mass 1.0
  length 0.45
  angle deg
:documentation
   .ast/.asf automatically generated from VICON data using
   VICON BodyBuilder and BodyLanguage model FoxedUp or BRILLIANT.MOD
:root
   order TX TY TZ RX RY RZ
   axis XYZ
   position 0 0 0  
   orientation 0 0 0 
:bonedata
  begin
     id 1 
     name lhipjoint
     direction 0.537252 -0.787203 0.302774 
     length 2.29576 
     axis 0 0 0  XYZ
  end
  begin
     id 2 
     name lfemur
     direction 0.34202 -0.939693 0  
     length 7.31114  
     axis 0 0 20  XYZ
    dof rx ry rz
    limits (-160.0 20.0)
           (-70.0 70.0)
           (-60.0 70.0)
  end
  begin
     id 3 
     name ltibia
     direction 0.34202 -0.939693 0   
     length 8.36008   
     axis 0 0 20   XYZ
    dof rx
    limits (-10.0 170.0)
  end
  begin
     id 4 
     name lfoot
     direction 0.0969116 -0.266263 0.959016   
     length 2.16704   
     axis -90 7.62852e-016 20   XYZ
    dof rx rz
    limits (-45.0 90.0)
           (-70.0 20.0)
  end
  begin
     id 5 
     name ltoes
     direction 1.53563e-011 -4.21779e-011 1   
     length 1.08338   
     axis -90 7.62852e-016 20   XYZ
    dof rx
    limits (-90.0 20.0)
  end
  begin
     id 6 
     name rhipjoint
     direction -0.588228 -0.754791 0.290308   
     length 2.39434  
     axis 0 0 0  XYZ 
  end
  begin
     id 7 
     name rfemur
     direction -0.34202 -0.939693 0   
     length 7.45207   
     axis 0 0 -20   XYZ
    dof rx ry rz
    limits (-160.0 20.0)
           (-70.0 70.0)
           (-70.0 60.0)
  end
  begin
     id 8 
     name rtibia
     direction -0.34202 -0.939693 0   
     length 8.03565   
     axis 0 0 -20   XYZ
    dof rx
    limits (-10.0 170.0)
 end
 begin
     id 9 
     name rfoot
     direction -0.107009 -0.294004 0.949795   
     length 2.11509  
     axis -90 -7.62852e-016 -20   XYZ
    dof rx rz
    limits (-45.0 90.0)
           (-20.0 70.0)
  end
  begin
     id 10 
     name rtoes
     direction -1.53533e-011 -4.22004e-011 1   
     length 1.05493   
     axis -90 -7.62852e-016 -20   XYZ
    dof rx
    limits (-90.0 20.0)
  end
  begin
     id 11 
     name lowerback
     direction -0.0115208 0.997969 -0.0626515   
     length 2.03153   
     axis 0 0 0   XYZ
    dof rx ry rz
    limits (-20.0 45.0)
           (-30.0 30.0)
           (-30.0 30.0)
  end
  begin
     id 12 
     name upperback
     direction -0.00423475 0.999974 -0.00583614   
     length 2.03619   
     axis 0 0 0   XYZ
    dof rx ry rz
    limits (-20.0 45.0)
           (-30.0 30.0)
           (-30.0 30.0)
  end
  begin
     id 13 
     name thorax
     direction 0.00289429 0.999728 0.0231573   
     length 2.03921   
     axis 0 0 0   XYZ
    dof rx ry rz
    limits (-20.0 45.0)
           (-30.0 30.0)
           (-30.0 30.0)
  end
  begin
     id 14 
     name lowerneck
     direction 0.0188995 0.987777 0.154721   
     length 1.78836   
     axis 0 0 0   XYZ
    dof rx ry rz
    limits (-20.0 45.0)
           (-30.0 30.0)
           (-30.0 30.0)
  end
  begin
     id 15 
     name upperneck
     direction -0.00612612 0.992995 -0.118   
     length 1.81789   
     axis 0 0 0   XYZ
    dof rx ry rz
    limits (-20.0 45.0)
           (-30.0 30.0)
           (-30.0 30.0)
  end
  begin
     id 16
     name head
     direction -0.00420226 0.998397 -0.0564482  
     length 1.82234  
     axis 0 0 0   XYZ
    dof rx ry rz
    limits (-20.0 45.0)
           (-30.0 30.0)
           (-30.0 30.0)
  end
  begin
     id 17 
     name lclavicle
     direction 0.916488 0.396539 0.0529676  
     length 3.51732  
     axis 0 0 0   XYZ
    dof ry rz
    limits (-20.0 10.0)
           (0.0 20.0)
  end
  begin
     id 18 
     name lhumerus
     direction 1 -4.4896e-011 8.36962e-028   
     length 5.45077   
     axis 180 -30 -90   XYZ
    dof rx ry rz
    limits (-60.0 90.0)
           (-90.0 90.0)
           (-90.0 90.0)
  end
  begin
     id 19
     name lradius
     direction 1 -4.48962e-011 3.01407e-027   
     length 3.05488   
     axis 180 -30 -90   XYZ
    dof rx
    limits (-10.0 170.0)
  end
  begin
     id 20
     name lwrist
     direction 1 -4.49002e-011 4.72961e-027   
     length 1.52744   
     axis -2.72261e-015 90 90   XYZ
    dof ry
    limits (-180.0 0.0)
 end
  begin
     id 21 
     name lhand
     direction 1 -4.4899e-011 9.45681e-027   
     length 0.638818   
     axis -6.0311e-015 90 90   XYZ
    dof rx rz
    limits (-90.0 90.0)
           (-45.0 45.0)
  end
  begin
     id 22 
     name lfingers
     direction 1 -4.48871e-011 1.88632e-026   
     length 0.515032   
     axis -1.20625e-014 90 90   XYZ
    dof rx
    limits (0.0 90.0)
  end
  begin
     id 23
     name lthumb
     direction 0.707107 -6.34964e-011 0.707107   
     length 0.739485   
     axis -90 45 6.32835e-014   XYZ
    dof rx rz
    limits (-45.0 45.0)
           (-45.0 45.0)
  end
  begin
     id 24 
     name rclavicle
     direction -0.949427 0.303202 0.0815894   
     length 3.76167  
     axis 0 0 0   XYZ 
    dof ry rz
    limits (-10.0 20.0)
           (-20.0 0.0)
  end
  begin
     id 25 
     name rhumerus
     direction -1 -4.48971e-011 -6.43969e-018  
     length 4.88702   
     axis 180 30 90   XYZ
    dof rx ry rz
    limits (-90.0 60.0)
           (-90.0 90.0)
           (-90.0 90.0)
  end
  begin
     id 26 
     name rradius
     direction -1 -4.48987e-011 5.46662e-027   
     length 3.22603   
     axis 180 30 90   XYZ
    dof rx
    limits (-10.0 170.0)
  end
  begin
     id 27 
     name rwrist
     direction -1 -4.48956e-011 4.72476e-027   
     length 1.61302   
     axis -2.72261e-015 -90 -90   XYZ
    dof ry
    limits (-180.0 0.0)
  end
  begin
     id 28
     name rhand
     direction -1 -4.4889e-011 9.43571e-027   
     length 0.716293   
     axis -6.0311e-015 -90 -90   XYZ
    dof rx rz
    limits (-90.0 90.0)
           (-45.0 45.0)
  end
  begin
     id 29
     name rfingers
     direction -1 -4.48887e-011 1.88701e-026   
     length 0.577494   
     axis -1.20625e-014 -90 -90   XYZ
    dof rx
    limits (0.0 90.0)
  end
  begin
     id 30
     name rthumb
     direction -0.707107 -6.34825e-011 0.707107   
     length 0.829169   
     axis -90 -45 -6.32835e-014   XYZ
    dof rx rz
    limits (-45.0 45.0)
           (-45.0 45.0)
  end
:hierarchy
  begin
    root lhipjoint rhipjoint lowerback
    lhipjoint lfemur
    lfemur ltibia
    ltibia lfoot
    lfoot ltoes
    rhipjoint rfemur
    rfemur rtibia
    rtibia rfoot
    rfoot rtoes
    lowerback upperback
    upperback thorax
    thorax lowerneck lclavicle rclavicle
    lowerneck upperneck
    upperneck head
    lclavicle lhumerus
    lhumerus lradius
    lradius lwrist
    lwrist lhand lthumb
    lhand lfingers
    rclavicle rhumerus
    rhumerus rradius
    rradius rwrist
    rwrist rhand rthumb
    rhand rfingers
  end

#!OML:ASF F:\VICON\USERDATA\INSTALL\rory3\rory3.ASF
:FULLY-SPECIFIED
:DEGREES
455
root 1.54628 18.5459 0.397822 25.1988 81.2231 12.9632
lowerback -10.4918 -1.80901 -2.74327
upperback -2.84214 -1.9338 -1.99607
thorax 2.94045 -0.92583 -0.774129
lowerneck -18.0053 -1.45367 3.14306
upperneck 21.9588 -3.71739 3.75459
head 10.0062 -0.92171 0.298548
rclavicle 1.95554e-014 2.38542e-015
rhumerus 35.2608 -21.3625 -25.0059
rradius 38.3183
rwrist 10.051
rhand -20.7748 3.69532
rfingers 7.12502
rthumb 5.59179 -26.2109
lclavicle 1.95554e-014 2.38542e-015
lhumerus -44.9475 -13.4344 86.6461
lradius 43.9676
lwrist 15.5768
lhand -9.14926 25.7075
lfingers 7.12502
lthumb 16.8028 55.0004
rfemur -8.09631 -12.2146 15.8133
rtibia -1.51076e-014
rfoot 0.218538 18.0131
rtoes -8.83884
lfemur -12.9858 9.72435 -20.7986
ltibia 15.0667
lfoot -13.4723 5.27114
ltoes -27.7868
456
root 1.55153 18.5445 0.398886 24.5217 81.2465 12.3472
lowerback -10.4373 -1.81774 -2.69051
upperback -2.8403 -1.95758 -1.92694
thorax 2.91324 -0.938114 -0.733329
lowerneck -18.1504 -1.43272 2.92926
upperneck 22.1295 -3.67854 3.90485
head 10.1017 -0.895551 0.39164
rclavicle -1.76421e-015 -1.74931e-014
rhumerus 35.0638 -21.369 -24.9783
rradius 38.7608
rwrist 9.36351
rhand -20.7987 3.90597
rfingers 7.12502
rthumb 5.56875 -26.0009
lclavicle -1.76421e-015 -1.74931e-014
lhumerus -45.107 -13.3716 86.6585
lradius 44.3831
lwrist 15.6151
lhand -9.24558 25.7061
lfingers 7.12502
lthumb 16.71 55.0069
rfemur -8.00618 -12.1892 15.905
rtibia -7.95139e-015
rfoot 0.183813 18.0239
rtoes -8.86815
lfemur -12.919 9.70224 -20.66
ltibia 15.1029
lfoot -13.4878 5.34692
ltoes -27.4521
457
root 1.55571 18.5419 0.400906 24.6314 81.2056 12.4629
lowerback -10.4427 -1.82256 -2.7189
upperback -2.86151 -1.96035 -1.93244
thorax 2.89492 -0.938988 -0.723213
lowerneck -18.2415 -1.42906 2.74734
upperneck 22.2419 -3.66401 4.04186
head 10.1656 -0.882351 0.471984
rclavicle -3.62782e-015 7.95139e-015
rhumerus 34.8742 -21.4219 -25.0636
rradius 39.1679
rwrist 8.68171
rhand -20.7841 3.78187
rfingers 7.12502
rthumb 5.58285 -26.1246
lclavicle -3.62782e-015 7.95139e-015
lhumerus -45.2238 -13.3391 86.6143
lradius 44.7005
lwrist 15.5774
lhand -9.22767 25.7808
lfingers 7.12502
lthumb 16.7273 55.0801
rfemur -7.99337 -12.1577 15.8787
rtibia -7.95139e-016
rfoot 0.142345 18.0097
rtoes -8.83551
lfemur -12.9125 9.67343 -20.6749
ltibia 15.1154
lfoot -13.5557 5.37438
ltoes -26.9313
458
root 1.558 18.5423 0.403139 24.697 81.191 12.5383
lowerback -10.4073 -1.81303 -2.74302
upperback -2.88779 -1.94634 -1.94351
thorax 2.84842 -0.931346 -0.717662
lowerneck -18.2511 -1.41981 2.80723
upperneck 22.2503 -3.64405 3.93834
head 10.1665 -0.880567 0.428201
rclavicle -4.44781e-014 -7.15625e-015
rhumerus 34.6067 -21.462 -25.0637
rradius 39.5998
rwrist 7.9521
rhand -20.6963 3.52916
rfingers 7.12502
rthumb 5.6676 -26.375
lclavicle -4.44781e-014 -7.15625e-015
lhumerus -45.3206 -13.4249 86.6276
lradius 44.9667
lwrist 15.5842
lhand -9.29098 25.7005
lfingers 7.12502
lthumb 16.6663 55.005
rfemur -7.97286 -12.1478 15.8642
rtibia -1.74931e-014
rfoot 0.0784321 18.0433
rtoes -8.90325
lfemur -12.8863 9.75461 -20.7005
ltibia 15.0976
lfoot -13.5422 5.28694
ltoes -27.0622
459
root 1.56249 18.5435 0.405375 24.7386 81.168 12.5847
lowerback -10.4144 -1.82641 -2.77015
upperback -2.90632 -1.96069 -1.94504
thorax 2.83397 -0.938031 -0.705734
lowerneck -18.3387 -1.37999 2.7611
upperneck 22.3706 -3.59376 3.97698
head 10.2277 -0.851065 0.456515
rclavicle -5.09386e-016 -7.95139e-015
rhumerus 34.4436 -21.4821 -25.1381
rradius 39.9469
rwrist 7.2855
rhand -20.747 3.65192
rfingers 7.12502
rthumb 5.61858 -26.2536
lclavicle -5.09386e-016 -7.95139e-015
lhumerus -45.4084 -13.432 86.5943
lradius 45.299
lwrist 15.6888
lhand -9.39766 25.7292
lfingers 7.12502
lthumb 16.5636 55.0423
rfemur -7.94883 -12.1294 15.8484
rtibia 1.19271e-014
rfoot 0.00385296 18.1023
rtoes -9.14958
lfemur -12.8262 9.69981 -20.7003
ltibia 15.0659
lfoot -13.5942 5.29973
ltoes -27.0109
460
root 1.56707 18.5431 0.405847 24.7577 81.1837 12.5989
lowerback -10.4486 -1.82904 -2.73277
upperback -2.90386 -1.96558 -1.96179
thorax 2.85358 -0.940346 -0.745828
lowerneck -18.4989 -1.36764 2.66744
upperneck 22.5399 -3.58663 4.06631
head 10.3231 -0.836504 0.504578
rclavicle 2.33572e-015 1.03368e-014
rhumerus 34.2086 -21.512 -25.1416
rradius 40.3244
rwrist 6.62057
rhand -20.8702 3.97336
rfingers 7.12502
rthumb 5.4997 -25.9353
lclavicle 2.33572e-015 1.03368e-014
lhumerus -45.4751 -13.5351 86.5727
lradius 45.69
lwrist 15.9063
lhand -9.34813 26.0194
lfingers 7.12502
lthumb 16.6113 55.3285
rfemur -7.94434 -12.1438 15.8594
rtibia 1.35174e-014
rfoot -0.0136128 18.1406
rtoes -9.29267
lfemur -12.8125 9.66174 -20.6897
ltibia 15.062
lfoot -13.5908 5.32156
ltoes -27.0451
461
root 1.5712 18.5401 0.407488 24.7042 81.1694 12.5591
lowerback -10.4367 -1.81251 -2.72728
upperback -2.91874 -1.94462 -1.96699
thorax 2.83105 -0.929535 -0.750897
lowerneck -18.5299 -1.39999 2.62615
upperneck 22.6083 -3.61159 4.0157
head 10.353 -0.855144 0.489997
rclavicle -5.8393e-016 -2.3059e-014
rhumerus 33.8938 -21.4635 -24.9881
rradius 40.7486
rwrist 5.73822
rhand -21.0196 4.15364
rfingers 7.12502
rthumb 5.35547 -25.7587
lclavicle -5.8393e-016 -2.3059e-014
lhumerus -45.5664 -13.6806 86.5768
lradius 46.0786
lwrist 16.1078
lhand -9.2768 26.1849
lfingers 7.12502
lthumb 16.68 55.4883
rfemur -7.91583 -12.1272 15.8567
rtibia 1.59028e-014
rfoot 0.0405844 18.1107
rtoes -9.06042
lfemur -12.7656 9.6972 -20.6825
ltibia 15.0172
lfoot -13.5263 5.35677
ltoes -27.3008
462
root 1.57439 18.5402 0.409838 24.7011 81.1339 12.5695
lowerback -10.4212 -1.80419 -2.75004
upperback -2.92995 -1.93129 -1.98005
thorax 2.81103 -0.922585 -0.749237
lowerneck -18.5497 -1.40791 2.61694
upperneck 22.6479 -3.61894 4.00119
head 10.371 -0.859443 0.485375
rclavicle 2.99419e-014 2.14687e-014
rhumerus 33.6469 -21.4718 -24.9749
rradius 41.1695
rwrist 5.00644
rhand -21.0602 3.78151
rfingers 7.12502
rthumb 5.31622 -26.1318
lclavicle 2.99419e-014 2.14687e-014
lhumerus -45.632 -13.7759 86.5474
lradius 46.4425
lwrist 16.1395
lhand -9.19852 26.3857
lfingers 7.12502
lthumb 16.7553 55.6827
rfemur -7.88939 -12.0949 15.8372
rtibia -3.4191e-014
rfoot 0.142688 18.0883
rtoes -8.63913
lfemur -12.7216 9.69046 -20.6839
ltibia 14.9848
lfoot -13.5065 5.39725
ltoes -27.4799
463
root 1.57885 18.5399 0.411788 24.636 81.1215 12.5289
lowerback -10.4549 -1.79079 -2.75002
upperback -2.90147 -1.91083 -1.99854
thorax 2.85839 -0.913011 -0.767477
lowerneck -18.5908 -1.41652 2.68712
upperneck 22.6519 -3.63226 3.91152
head 10.3769 -0.87019 0.439647
rclavicle -4.38817e-014 -2.78299e-014
rhumerus 33.4681 -21.6448 -25.087
rradius 41.5347
rwrist 4.45494
rhand -20.8169 3.26914
rfingers 7.12502
rthumb 5.55117 -26.6382
lclavicle -4.38817e-014 -2.78299e-014
lhumerus -45.5777 -13.8393 86.4862
lradius 46.7194
lwrist 16.1388
lhand -9.23739 26.4033
lfingers 7.12502
lthumb 16.7179 55.7035
rfemur -8.17242 -12.0704 15.8794
rtibia 0.598576
rfoot -0.251376 18.2005
rtoes -8.87247
lfemur -12.6825 9.72655 -20.6741
ltibia 14.9613
lfoot -13.4964 5.38565
ltoes -27.4597
464
root 1.58406 18.5383 0.414461 24.4822 81.1257 12.3657
lowerback -10.5265 -1.78745 -2.75128
upperback -2.87692 -1.90348 -1.98007
thorax 2.92394 -0.910085 -0.74946
lowerneck -18.658 -1.42477 2.64686
upperneck 22.6508 -3.62899 3.8817
head 10.3888 -0.875751 0.435658
rclavicle -3.42779e-014 -2.94201e-014
rhumerus 33.1502 -21.6454 -24.9414
rradius 42.1054
rwrist 3.57856
rhand -20.6523 2.56632
rfingers 7.12502
rthumb 5.71001 -27.3368
lclavicle -3.42779e-014 -2.94201e-014
lhumerus -45.608 -13.8824 86.4753
lradius 47.1054
lwrist 16.2009
lhand -9.16505 26.3213
lfingers 7.12502
lthumb 16.7876 55.6156
rfemur -8.60721 -12.0506 15.9753
rtibia 1.41197
rfoot -0.691877 18.3442
rtoes -9.17545
lfemur -12.6468 9.73954 -20.6408
ltibia 14.9036
lfoot -13.4773 5.38465
ltoes -27.2789
465
root 1.59056 18.539 0.416167 24.533 81.0983 12.4516
lowerback -10.5389 -1.78481 -2.78151
upperback -2.8623 -1.89635 -1.97385
thorax 2.9471 -0.90703 -0.725853
lowerneck -18.6503 -1.42322 2.64564
upperneck 22.5923 -3.60599 3.80726
head 10.3637 -0.877431 0.41238
rclavicle -2.62147e-015 2.8625e-014
rhumerus 32.7766 -21.5239 -24.6967
rradius 42.6896
rwrist 2.51882
rhand -20.8818 2.39909
rfingers 7.12502
rthumb 5.48846 -27.5098
lclavicle -2.62147e-015 2.8625e-014
lhumerus -45.7184 -13.9762 86.5085
lradius 47.5587
lwrist 16.492
lhand -9.05328 26.4869
lfingers 7.12502
lthumb 16.8951 55.7719
rfemur -8.91483 -12.0187 15.9954
rtibia 2.06572
rfoot -1.03506 18.4381
rtoes -9.05275
lfemur -12.533 9.70666 -20.6486
ltibia 14.8275
lfoot -13.4859 5.43117
ltoes -27.234
